<svg xmlns="http://www.w3.org/2000/svg" width="170" height="170" viewBox="0 0 170 170" id="happy-kid">
  <g>
    <g id="Merged">
      <g>
        <path d="M111.134,108.905c-3.533-2.955-11.151-1.759-16.164-1.985-8.627.006-21.33-.015-29.112.013-5.187-.245-7.647,2.233-8.654,3.73-1.135,1.576-2.534,5.523.184,11.012,4.356,9.2,16.866,14.694,27.674,14.439,7.456,0,14.724-2.094,20.26-6.017,6.129-3.563,12.961-15.125,5.811-21.192ZM66.318,117.173c-.039-.084-.074-.164-.107-.242,7.74-.028,20.093-.004,28.611-.011,2.81.154,6.052-.163,9.106-.02-5.968,12.206-31.23,12.283-37.609.272Z"></path>
        <path d="M141.577,76.56c-7.207-21.052-24.691-33.435-44.001-37.15-1.687-4.553-1.679-11.456-1.079-16.432.33-2.741-1.625-5.231-4.366-5.562-2.746-.333-5.232,1.623-5.562,4.366-.394,3.272-.909,10.003.357,16.459-1.062-.03-2.124-.034-3.186-.014-5.232-5.081-6.863-11.111-7.365-14.366-.421-2.73-2.979-4.603-5.704-4.179-2.729.421-4.6,2.976-4.179,5.704.787,5.086,2.654,9.899,5.419,14.118-2.18.438-4.334.989-6.453,1.648-1.939-2.779-3.281-5.864-3.872-9.113-1.389-6.475-10.819-4.74-9.838,1.791.716,3.934,2.168,7.69,4.246,11.133-12.323,6.227-22.492,16.765-27.569,31.597-11.259-2.432-23.529,5.724-23.424,17.873,0,10.089,8.598,18.297,19.167,18.297,1.202,0,2.398-.111,3.572-.325,7.642,23.28,30.421,40.216,57.261,40.216s49.621-16.938,57.262-40.218c1.283.224,2.526.328,3.571.328,10.568,0,19.167-8.208,19.166-18.297.105-12.149-12.164-20.303-23.423-17.873ZM15,94.433c0-4.575,4.112-8.297,9.167-8.297.606,0,1.204.074,1.794.183-.489,2.859-.826,5.832-.961,8.945,0,2.505.187,4.969.515,7.39-5.116.655-10.595-2.938-10.515-8.221ZM35,95.264c0-18.483,11.244-34.516,27.588-42.313.874.792,1.789,1.552,2.75,2.271,6.891,5.154,16.916,6.034,21.488,6.034,3.704.335,6.802-1.826,6.454-5.634-.322-2.734-2.817-4.686-5.548-4.382-1.592.183-8.154-.101-13.258-2.268,3.396-.692,6.915-1.065,10.526-1.065,27.57,0,50,21.244,50,47.356-2.734,62.806-97.256,62.826-100,0ZM144.485,102.654c.328-2.421.515-4.884.515-7.389-.135-3.114-.471-6.087-.96-8.946.59-.108,1.187-.182,1.793-.182,5.054,0,9.167,3.722,9.166,8.297.081,5.284-5.398,8.876-10.515,8.221Z"></path>
        <path d="M63.333 93.986c4.694 0 8.5-3.805 8.5-8.5s-3.806-8.5-8.5-8.5c-11.272.446-11.275 16.552 0 17ZM106.667 76.986c-11.272.446-11.275 16.552 0 17 4.694 0 8.5-3.805 8.5-8.5s-3.806-8.5-8.5-8.5Z"></path>
      </g>
    </g>
  </g>
</svg>
